<svg width="24" height="24" viewBox="0 0 24 24" fill="none" xmlns="http://www.w3.org/2000/svg">
<path d="M10.875 15C11.9105 15 12.75 14.1605 12.75 13.125C12.75 12.0895 11.9105 11.25 10.875 11.25C9.83947 11.25 9 12.0895 9 13.125C9 14.1605 9.83947 15 10.875 15Z" stroke="#A1A5B3" stroke-width="1.5" stroke-linecap="round" stroke-linejoin="round"/>
<path d="M3.00049 21.0003L9.54911 14.4508" stroke="#A1A5B3" stroke-width="1.5" stroke-linecap="round" stroke-linejoin="round"/>
<path d="M3.00049 21.0004L16.0735 18.8215C16.2033 18.7999 16.3252 18.7445 16.4268 18.6608C16.5284 18.5772 16.6063 18.4683 16.6525 18.3451L18.7505 12.7504L11.2505 5.25037L5.65578 7.34839C5.53255 7.3946 5.42365 7.47242 5.34002 7.57405C5.25638 7.67567 5.20097 7.79751 5.17933 7.92733L3.00049 21.0004Z" stroke="#A1A5B3" stroke-width="1.5" stroke-linecap="round" stroke-linejoin="round"/>
<path d="M18.7505 12.7503L21.2202 10.2806C21.2898 10.2109 21.345 10.1283 21.3827 10.0373C21.4204 9.94627 21.4398 9.84874 21.4398 9.75025C21.4398 9.65176 21.4204 9.55423 21.3827 9.46324C21.345 9.37225 21.2898 9.28957 21.2202 9.21992L14.7808 2.78058C14.6402 2.63993 14.4494 2.56091 14.2505 2.56091C14.0516 2.56091 13.8608 2.63993 13.7202 2.78058L11.2505 5.25025" stroke="#A1A5B3" stroke-width="1.5" stroke-linecap="round" stroke-linejoin="round"/>
</svg>
