<svg width="32" height="32" viewBox="0 0 32 32" fill="none" xmlns="http://www.w3.org/2000/svg">
<path d="M20.3312 23.7849H11.6797V8.245H20.3314L20.3312 23.7849Z" fill="#FF5F00"/>
<path d="M12.2267 16.0132C12.2267 12.8609 13.7034 10.0529 16.003 8.24322C14.2623 6.8714 12.1094 6.12686 9.89274 6.13014C4.43223 6.13014 0.00585938 10.5549 0.00585938 16.0132C0.00585938 21.4715 4.43223 25.8962 9.89274 25.8962C12.1095 25.8995 14.2625 25.155 16.0032 23.7831C13.7038 21.9738 12.2267 19.1656 12.2267 16.0132Z" fill="#EB001B"/>
<path d="M32.001 16.0132C32.001 21.4715 27.5747 25.8962 22.1142 25.8962C19.8972 25.8995 17.744 25.155 16.0029 23.7831C18.3031 21.9735 19.7799 19.1656 19.7799 16.0132C19.7799 12.8607 18.3031 10.0529 16.0029 8.24322C17.7439 6.87144 19.8971 6.12692 22.114 6.13014C27.5745 6.13014 32.0009 10.5549 32.0009 16.0132" fill="#F79E1B"/>
</svg>
