<svg width="32" height="32" viewBox="0 0 32 32" fill="none" xmlns="http://www.w3.org/2000/svg">
<path fill-rule="evenodd" clip-rule="evenodd" d="M11.2612 21.1555H13.8723L15.5045 10.8508H12.8931L11.2612 21.1555ZM6.57518 17.9384L9.06452 10.8508H11.8747L7.72046 21.1558H4.99987L2.73132 12.2031C1.25848 11.2943 0 11.0252 0 11.0252L0.000270457 11.0243C0.0267351 11.03 1.99082 11.4561 3.87524 13.0235C5.66033 14.5077 6.26165 16.3517 6.28042 16.4103L6.28089 16.4127L6.28062 16.4122L6.57518 17.9384ZM32 21.1555H29.6024L29.2966 19.6248H25.9772L25.4329 21.1555H22.7109L26.6052 11.6184C26.6052 11.6184 26.8413 10.8505 27.8106 10.8505H29.9096L32 21.1555ZM28.1011 13.6541L26.7292 17.5104H28.873L28.1011 13.6541ZM23.2877 11.1159L22.9151 13.3288C21.7977 12.6962 19.2547 12.5465 19.2545 13.7117C19.2545 14.1746 19.8298 14.4929 20.5233 14.8766C21.5751 15.4585 22.8985 16.1907 22.8985 17.8053C22.8985 20.3853 20.2103 21.3333 18.4284 21.3333C16.6471 21.3333 15.4812 20.7514 15.4812 20.7514L15.8693 18.4376C16.9384 19.3194 20.1779 19.57 20.1779 18.1716C20.1779 17.584 19.5402 17.2375 18.8007 16.8357C17.7804 16.2813 16.5663 15.6215 16.5663 14.078C16.5663 11.2485 19.6435 10.6666 20.9392 10.6666C22.1379 10.6666 23.2877 11.1159 23.2877 11.1159Z" fill="#2566AF"/>
<path d="M6.29275 16.2684L5.41249 11.7496C5.41249 11.7496 5.30605 10.8448 4.17151 10.8448H0.048381L0 11.015C0 11.015 1.98174 11.4257 3.88257 12.9645C5.70008 14.4353 6.29275 16.2684 6.29275 16.2684Z" fill="#E6A540"/>
</svg>
